<svg xmlns="http://www.w3.org/2000/svg" id="Logo" width="137" height="28" version="1.1"><defs id="defs4609"><style id="style4607"></style></defs><g aria-label="BUKEE" id="BUKEE" font-weight="700" font-size="28" font-family="Roboto Slab" text-anchor="middle" fill="#fefefe"><path d="M40.504 23v-2.393l2.119-.41V5.91l-2.12-.41V3.094H49.35q3.513 0 5.482 1.367 1.969 1.367 1.969 4.088 0 1.38-.739 2.474-.724 1.08-2.119 1.627 1.19.26 1.983.916.806.657 1.203 1.6.396.93.396 2.037 0 2.858-1.886 4.334Q53.752 23 50.293 23zm6.111-3.063h3.678q1.586 0 2.42-.683.834-.697.834-2.05 0-.985-.315-1.655-.314-.67-.97-1.012-.643-.342-1.668-.342h-3.979zm0-8.503h2.871q1.6 0 2.461-.657.862-.656.862-1.914 0-1.38-.875-2.037-.862-.656-2.584-.656h-2.735z" id="path5164" font-weight="700" font-size="28" font-family="Roboto Slab" text-anchor="middle" fill="#fefefe"/><path d="M68.723 23.287q-2.366 0-4.17-.82-1.791-.82-2.79-2.38-.997-1.558-.997-3.786V5.91l-2.12-.411V3.094h8.245V5.5l-2.133.41V16.3q0 1.313.478 2.188.479.875 1.368 1.313.888.424 2.119.424 1.257 0 2.146-.424.902-.438 1.381-1.313t.479-2.187V5.91l-2.12-.411V3.094h8.245V5.5l-2.133.41V16.3q0 2.23-1.012 3.802-.998 1.558-2.803 2.378-1.79.807-4.183.807z" id="path5166" font-weight="700" font-size="28" font-family="Roboto Slab" text-anchor="middle" fill="#fefefe"/><path d="M85.43 18.12l-2.065-2.366 9.748-10.049.028-.04-1.97-.165V3.094h8.19V5.5l-1.873.37zM80.152 23v-2.393l2.12-.41V5.91l-2.12-.41V3.094h8.135V5.5l-2.023.41v14.287l2.023.41V23zm11.457 0v-2.393l1.86-.164h.013l-5.058-6.972 2.638-2.639 7.055 9.434 1.955.341V23z" id="path5168" font-weight="700" font-size="28" font-family="Roboto Slab" text-anchor="middle" fill="#fefefe"/><path d="M101.262 23v-2.393l2.119-.41V5.91l-2.12-.41V3.094h15.45v5.373h-3.063l-.177-2.297h-6.098v5.004h6.74v3.076h-6.74v5.688h6.426l.178-2.38h3.035V23z" id="path5170" fill="#65e496"/><path d="M119.145 23v-2.393l2.119-.41V5.91l-2.12-.41V3.094h15.45v5.373h-3.063l-.177-2.297h-6.098v5.004h6.74v3.076h-6.74v5.688h6.426l.177-2.38h3.036V23z" id="path5172" fill="#65e496"/></g><g id="logo_icon" data-name="logo icon" fill-rule="evenodd"><path id="Rectangle_10_copy_3" data-name="Rectangle 10 copy 3" d="M243 78l-28-28h28v28z" transform="translate(-215 -50)" fill="#65e496"/><path d="M243 50l-28 28V50h28z" transform="translate(-215 -50)" id="path4615" fill="#44444f"/></g></svg>