<?xml version="1.0" encoding="UTF-8" standalone="no"?>
<svg
   xmlns:dc="http://purl.org/dc/elements/1.1/"
   xmlns:cc="http://creativecommons.org/ns#"
   xmlns:rdf="http://www.w3.org/1999/02/22-rdf-syntax-ns#"
   xmlns:svg="http://www.w3.org/2000/svg"
   xmlns="http://www.w3.org/2000/svg"
   xmlns:sodipodi="http://sodipodi.sourceforge.net/DTD/sodipodi-0.dtd"
   xmlns:inkscape="http://www.inkscape.org/namespaces/inkscape"
   viewBox="0 0 23 18"
   version="1.1"
   id="svg4550"
   sodipodi:docname="sass.svg"
   width="23"
   height="18"
   inkscape:version="0.92.4 (5da689c313, 2019-01-14)">
  <metadata
     id="metadata4556">
    <rdf:RDF>
      <cc:Work
         rdf:about="">
        <dc:format>image/svg+xml</dc:format>
        <dc:type
           rdf:resource="http://purl.org/dc/dcmitype/StillImage" />
        <dc:title></dc:title>
      </cc:Work>
    </rdf:RDF>
  </metadata>
  <defs
     id="defs4554">
    <filter
       inkscape:collect="always"
       style="color-interpolation-filters:sRGB"
       id="filter4566"
       x="-0.0032086979"
       width="1.0064174"
       y="-0.0040999964"
       height="1.0082">
      <feGaussianBlur
         inkscape:collect="always"
         stdDeviation="0.030750059"
         id="feGaussianBlur4568" />
    </filter>
  </defs>
  <sodipodi:namedview
     pagecolor="#ffffff"
     bordercolor="#666666"
     borderopacity="1"
     objecttolerance="10"
     gridtolerance="10"
     guidetolerance="10"
     inkscape:pageopacity="0"
     inkscape:pageshadow="2"
     inkscape:window-width="1366"
     inkscape:window-height="705"
     id="namedview4552"
     showgrid="false"
     units="px"
     width="23mm"
     inkscape:zoom="29.777694"
     inkscape:cx="11.87298"
     inkscape:cy="9"
     inkscape:window-x="-8"
     inkscape:window-y="-8"
     inkscape:window-maximized="1"
     inkscape:current-layer="svg4550" />
  <path
     d="m 10.84738,13.607922 c -0.01078,0.0225 -0.02156,0.0405 0,0 z m 8.953218,-3.26223 a 4.7136198,4.9180987 0 0 0 -2.0844,0.50621 c -0.212035,-0.44622 -0.431256,-0.83619 -0.467194,-1.1286601 -0.04312,-0.34122 -0.08984,-0.54371 -0.03954,-0.9486801 0.05031,-0.40496 0.276722,-0.97867 0.273128,-1.01991 -0.0036,-0.0412 -0.05031,-0.24748 -0.513912,-0.25123 -0.4636,-0.004 -0.862511,0.0937 -0.908871,0.22123 a 4.4142567,4.6057491 0 0 0 -0.190471,0.71619 c -0.08266,0.43872 -0.926839,2.0060902 -1.404814,2.8235202 -0.158127,-0.31872 -0.291097,-0.59995 -0.319848,-0.82493 -0.04312,-0.34122 -0.08984,-0.5437101 -0.03954,-0.9486701 0.05031,-0.40497 0.276722,-0.9786701 0.273128,-1.0199201 -0.0036,-0.0412 -0.05031,-0.24748 -0.513553,-0.25123 -0.46324,-0.004 -0.862511,0.0937 -0.90923,0.22123 -0.04672,0.12749 -0.09703,0.42747 -0.190471,0.7161901 -0.09344,0.28873 -1.217937,2.8985201 -1.512268,3.5772101 -0.15094,0.34497 -0.280316,0.62245 -0.373755,0.80994 -0.01437,0.03 -0.02516,0.0487 -0.03234,0.0637 0.01078,-0.0188 0.01797,-0.0375 0.01797,-0.03 -0.07906,0.16124 -0.125783,0.25123 -0.125783,0.25123 v 0.004 c -0.06109,0.11999 -0.129377,0.22873 -0.161721,0.22873 -0.02156,0 -0.06828,-0.31497 0.01079,-0.74619 0.168908,-0.90742 0.567819,-2.31731 0.564225,-2.36605 -0.0036,-0.0263 0.07547,-0.26998 -0.262347,-0.40122 -0.327035,-0.12374 -0.44563,0.0825 -0.47438,0.0825 -0.02875,0 -0.05031,0.075 -0.05031,0.075 0,0 0.362973,-1.5898701 -0.6968375,-1.5898701 -0.6612576,0 -1.5812687,0.75744 -2.033368,1.4436301 -0.2839097,0.16124 -0.8984484,0.50996 -1.5453313,0.88118 -0.2479717,0.14249 -0.5031311,0.28872 -0.7439153,0.42746 -0.017969,-0.0188 -0.032344,-0.0375 -0.050312,-0.0562 -1.2862188,-1.43239 -3.6609976,-2.4448001 -3.5603714,-4.3684002 0.035937,-0.70119 0.2695345,-2.54229 4.5666336,-4.77711 3.5219174,-1.82984996 6.3376549,-1.32739 6.8224579,-0.20998 0.697196,1.59362 -1.50544,4.55963 -5.1628441,4.98709 -1.3940324,0.16124 -2.126807,-0.40121 -2.3100905,-0.6112 -0.190471,-0.22123 -0.2192214,-0.23248 -0.2910973,-0.19123 -0.1185944,0.0675 -0.043125,0.26248 0,0.37872 0.1078138,0.29622 0.5570381,0.82118 1.3221567,1.08366 0.6720394,0.22873 2.3064968,0.35622 4.2827242,-0.44246 2.220245,-0.89243 3.9485,-3.37848 3.441776,-5.45956 C 13.890603,0.08678184 10.529687,-0.60690816 7.3516955,0.57049184 5.4581257,1.2716918 3.4103821,2.3741018 1.9372861,3.8102318 c -1.74981812,1.70986 -2.02977465,3.19849 -1.91477324,3.82094 0.40933309,2.2085701 3.32677474,3.6484502 4.49439834,4.7133602 -0.0575,0.0337 -0.111407,0.0638 -0.1617208,0.0938 -0.5854289,0.30372 -2.8096278,1.51862 -3.36630648,2.80102 -0.62891384,1.45488 0.10422008,2.49729 0.58542908,2.63978 1.5018463,0.43497 3.0396306,-0.34872 3.8658437,-1.63486 0.8262132,-1.28615 0.7259464,-2.96601 0.3450042,-3.73095 -0.00359,-0.0113 -0.010784,-0.0188 -0.014375,-0.03 0.1509394,-0.0937 0.3054725,-0.18748 0.4600056,-0.28122 0.2979255,-0.18374 0.5890228,-0.35248 0.8441821,-0.49871 -0.1437517,0.40496 -0.2479718,0.89242 -0.3018787,1.59737 -0.064689,0.82493 0.2623469,1.89359 0.6864146,2.31356 0.1868772,0.18373 0.4129269,0.18748 0.5530849,0.18748 0.4959435,0 0.7187587,-0.42746 0.9663711,-0.93742 0.3054724,-0.62245 0.575007,-1.34614 0.575007,-1.34614 0,0 -0.3378166,1.95734 0.5857885,1.95734 0.337457,0 0.675274,-0.45371 0.826572,-0.6862 v 0.004 c 0,0 0.0072,-0.015 0.02516,-0.045 0.03594,-0.0563 0.05391,-0.09 0.05391,-0.09 v -0.0112 c 0.136564,-0.24373 0.434849,-0.80244 0.883714,-1.72486 0.582195,-1.19241 1.138873,-2.68103 1.138873,-2.68103 a 7.2321503,7.5458842 0 0 0 0.222815,0.96742 c 0.100626,0.35622 0.31266,0.74619 0.481568,1.1249 -0.136564,0.19499 -0.219222,0.30748 -0.219222,0.30748 a 0.01114076,0.01162405 0 0 0 0.0036,0.007 c -0.107819,0.14999 -0.230003,0.31122 -0.355786,0.46871 -0.459645,0.56995 -1.006261,1.2224 -1.078137,1.40989 -0.08625,0.22123 -0.06469,0.38621 0.100626,0.5137 0.122189,0.0975 0.337817,0.11249 0.563866,0.0938 0.413286,-0.03 0.704383,-0.13499 0.844541,-0.20249 a 2.9540983,3.0822485 0 0 0 0.725587,-0.39747 c 0.449224,-0.34497 0.722353,-0.83993 0.697197,-1.49237 -0.01438,-0.35997 -0.125785,-0.71994 -0.262348,-1.05742 0.03954,-0.06 0.08266,-0.12374 0.122194,-0.18748 0.711212,-1.08366 1.261063,-2.2730701 1.261063,-2.2730701 a 7.2321503,7.5458842 0 0 0 0.222815,0.9674201 c 0.08625,0.30373 0.254799,0.63745 0.409332,0.96368 -0.668086,0.5662 -1.081372,1.2224 -1.225123,1.65361 -0.265942,0.79869 -0.0575,1.15866 0.334222,1.24115 0.176097,0.0375 0.427662,-0.0487 0.61454,-0.13124 a 2.8556284,2.9795069 0 0 0 0.775899,-0.41622 c 0.449224,-0.34497 0.883714,-0.82868 0.854964,-1.48487 -0.01073,-0.29623 -0.08984,-0.59246 -0.194065,-0.87743 0.564226,-0.24748 1.296999,-0.38247 2.231386,-0.26998 2.001024,0.24373 2.392748,1.54862 2.317278,2.09233 -0.07546,0.5437 -0.495943,0.84743 -0.636101,0.93742 -0.140158,0.09 -0.183283,0.12374 -0.172503,0.19124 0.01797,0.0975 0.08266,0.0937 0.201253,0.0712 0.165315,-0.03 1.04903,-0.44246 1.088561,-1.45113 0.0575,-1.2749 -1.11731,-2.67728 -3.198476,-2.66603 z m -15.4238445,5.4258 c -0.6608986,0.75369 -1.5880973,1.03867 -1.986649,0.79869 -0.4276615,-0.25948 -0.2587532,-1.36864 0.5566785,-2.17182 0.4959436,-0.48746 1.1352794,-0.93743 1.5593471,-1.2149 0.097032,-0.06 0.2371904,-0.14999 0.4096925,-0.25873 0.02875,-0.0188 0.043125,-0.0263 0.043125,-0.0263 0.032344,-0.0225 0.068282,-0.0412 0.1042195,-0.0637 0.2979255,1.13991 0.010784,2.14483 -0.6864146,2.93601 z m 4.8286212,-3.42722 c -0.2300029,0.58871 -0.7148056,2.08858 -1.0094967,2.00984 -0.2515656,-0.0675 -0.4060987,-1.21115 -0.050313,-2.33606 0.1796896,-0.5662 0.5606317,-1.24115 0.7870407,-1.50363 0.3626138,-0.42371 0.7615248,-0.5587001 0.8549638,-0.38997 0.125783,0.22124 -0.438443,1.85235 -0.5821948,2.21982 z m 3.9891123,1.98734 c -0.09703,0.0525 -0.186878,0.0862 -0.230003,0.06 -0.03234,-0.0188 0.03953,-0.09 0.03953,-0.09 0,0 0.499539,-0.5587 0.697197,-0.81368 0.115,-0.14999 0.247972,-0.32622 0.391364,-0.52121 0,0.0188 0.0036,0.0375 0.0036,0.06 -0.0047,0.67119 -0.622444,1.12491 -0.90276,1.30489 z m 3.075567,-0.73119 c -0.07188,-0.0525 -0.06109,-0.22873 0.17969,-0.77619 0.09344,-0.21373 0.308708,-0.5737 0.682821,-0.91867 a 1.3002345,1.3566393 0 0 1 0.06828,0.40497 c -0.0036,0.84368 -0.582194,1.15865 -0.930432,1.28989 z"
     id="path4548"
     style="fill:#65e496;stroke-width:1.00000012;fill-opacity:1;filter:url(#filter4566);opacity:1"
     inkscape:connector-curvature="0" />
</svg>
