<?xml version="1.0" encoding="UTF-8" standalone="no"?>
<svg
   xmlns:dc="http://purl.org/dc/elements/1.1/"
   xmlns:cc="http://creativecommons.org/ns#"
   xmlns:rdf="http://www.w3.org/1999/02/22-rdf-syntax-ns#"
   xmlns:svg="http://www.w3.org/2000/svg"
   xmlns="http://www.w3.org/2000/svg"
   xmlns:sodipodi="http://sodipodi.sourceforge.net/DTD/sodipodi-0.dtd"
   xmlns:inkscape="http://www.inkscape.org/namespaces/inkscape"
   viewBox="0 0 15 15"
   version="1.1"
   id="svg8759"
   sodipodi:docname="slack-hash.svg"
   width="15"
   height="15"
   inkscape:version="0.92.4 (5da689c313, 2019-01-14)">
  <metadata
     id="metadata8765">
    <rdf:RDF>
      <cc:Work
         rdf:about="">
        <dc:format>image/svg+xml</dc:format>
        <dc:type
           rdf:resource="http://purl.org/dc/dcmitype/StillImage" />
        <dc:title></dc:title>
      </cc:Work>
    </rdf:RDF>
  </metadata>
  <defs
     id="defs8763" />
  <sodipodi:namedview
     pagecolor="#ffffff"
     bordercolor="#666666"
     borderopacity="1"
     objecttolerance="10"
     gridtolerance="10"
     guidetolerance="10"
     inkscape:pageopacity="0"
     inkscape:pageshadow="2"
     inkscape:window-width="1366"
     inkscape:window-height="705"
     id="namedview8761"
     showgrid="false"
     inkscape:zoom="38.285708"
     inkscape:cx="7.5158165"
     inkscape:cy="7.4059921"
     inkscape:window-x="-8"
     inkscape:window-y="-8"
     inkscape:window-maximized="1"
     inkscape:current-layer="svg8759" />
  <path
     d="m 14.938955,7.9488227 c -0.207586,-0.59385 -0.900654,-0.90952 -1.540153,-0.71574 l -1.520064,0.47195 -1.014492,-2.81296 1.520064,-0.47196 c 0.639498,-0.19378 0.974314,-0.83763 0.770077,-1.43461 -0.207586,-0.59384 -0.900655,-0.90952 -1.540154,-0.71574 l -1.520064,0.47195 -0.5256603,-1.46899 C 9.3609228,0.67887273 8.6678539,0.36320273 8.0283556,0.55698273 7.3888572,0.75076273 7.0540413,1.3946227 7.258279,1.9915927 l 0.525661,1.46899 -3.1271805,0.97516 -0.525661,-1.46899 c -0.2075858,-0.59385 -0.9006547,-0.90952 -1.540153,-0.71574 -0.6394984,0.19378 -0.9743143,0.83764 -0.7700766,1.43461 l 0.525661,1.46899 -1.51671604,0.46883 c -0.63949836,0.19378 -0.97431425,0.83764 -0.77007656,1.43461 0.16740795,0.4532 0.63949836,0.75012 1.1249814,0.76887 0.2276748,0.0313 0.4017791,-0.05 1.9318878,-0.52508 l 1.014492,2.8129603 -1.5200641,0.47195 c -0.6361502,0.19379 -0.9743142,0.84077 -0.7700765,1.43461 0.1674079,0.4532 0.6394983,0.75013 1.1249814,0.76888 0.2276748,0.0313 0.401779,-0.05 1.9318876,-0.52509 l 0.525661,1.469 c 0.1975414,0.52821 0.8269953,0.9064 1.5401531,0.71574 0.6394984,-0.19378 0.9743143,-0.83764 0.7700766,-1.43461 l -0.5256609,-1.46899 3.1338763,-0.97829 0.525661,1.46899 c 0.197541,0.52821 0.826995,0.9064 1.540153,0.71574 0.639498,-0.19378 0.974314,-0.83763 0.770077,-1.43461 l -0.525661,-1.4689903 1.520064,-0.47195 c 0.63615,-0.18753 0.974314,-0.83451 0.766728,-1.42836 z m -8.5076712,1.47524 -1.0144922,-2.81921 3.1305286,-0.97829 1.0144921,2.81922 z"
     id="path8757"
     inkscape:connector-curvature="0"
     style="stroke-width:1;fill:#65e496;fill-opacity:1" />
</svg>
