<?xml version="1.0" encoding="UTF-8" standalone="no"?>
<svg
   xmlns:dc="http://purl.org/dc/elements/1.1/"
   xmlns:cc="http://creativecommons.org/ns#"
   xmlns:rdf="http://www.w3.org/1999/02/22-rdf-syntax-ns#"
   xmlns:svg="http://www.w3.org/2000/svg"
   xmlns="http://www.w3.org/2000/svg"
   xmlns:sodipodi="http://sodipodi.sourceforge.net/DTD/sodipodi-0.dtd"
   xmlns:inkscape="http://www.inkscape.org/namespaces/inkscape"
   viewBox="0 0 16 15"
   version="1.1"
   id="svg6836"
   sodipodi:docname="twitter.svg"
   width="16"
   height="15"
   inkscape:version="0.92.4 (5da689c313, 2019-01-14)">
  <metadata
     id="metadata6842">
    <rdf:RDF>
      <cc:Work
         rdf:about="">
        <dc:format>image/svg+xml</dc:format>
        <dc:type
           rdf:resource="http://purl.org/dc/dcmitype/StillImage" />
        <dc:title></dc:title>
      </cc:Work>
    </rdf:RDF>
  </metadata>
  <defs
     id="defs6840" />
  <sodipodi:namedview
     pagecolor="#ffffff"
     bordercolor="#666666"
     borderopacity="1"
     objecttolerance="10"
     gridtolerance="10"
     guidetolerance="10"
     inkscape:pageopacity="0"
     inkscape:pageshadow="2"
     inkscape:window-width="1366"
     inkscape:window-height="705"
     id="namedview6838"
     showgrid="false"
     inkscape:zoom="41.230864"
     inkscape:cx="7.9999995"
     inkscape:cy="7.8214005"
     inkscape:window-x="-8"
     inkscape:window-y="-8"
     inkscape:window-maximized="1"
     inkscape:current-layer="svg6836" />
  <path
     d="m 14.355368,4.23983 c 0.01016,0.14218 0.01016,0.2844 0.01016,0.42658 C 14.365528,9.00311 11.066046,14 5.0355546,14 3.1776685,14 1.4517868,13.4617 0,12.52736 c 0.26396976,0.0304 0.51775199,0.0406 0.79187804,0.0406 1.53297466,0 2.94416756,-0.51795 4.07107816,-1.40155 -1.4416306,-0.0305 -2.6497602,-0.975 -3.0660118,-2.27501 0.2030633,0.0305 0.4060953,0.0508 0.6193149,0.0508 0.2944074,0 0.588846,-0.0406 0.8629408,-0.1117 C 1.7766631,8.52578 0.64972124,7.20548 0.64972124,5.61095 V 5.57035 C 1.0862542,5.81411 1.5939124,5.96645 2.1319457,5.98674 1.2486923,5.39766 0.67003382,4.3922 0.67003382,3.2547 c 0,-0.60937 0.16240688,-1.16796 0.44668918,-1.65546 1.614225,1.99062 4.0406406,3.2906 6.7614323,3.43281 -0.05075,-0.24375 -0.081219,-0.49763 -0.081219,-0.75155 0,-1.80783 1.4619431,-3.28047 3.2791997,-3.28047 0.94416,0 1.796945,0.39609 2.395947,1.03594 0.741097,-0.14218 1.451756,-0.41641 2.081227,-0.79219 -0.243689,0.76174 -0.761441,1.40158 -1.441631,1.80781 0.659909,-0.0711 1.299505,-0.25392 1.88832,-0.5078 -0.446627,0.64998 -1.005035,1.22886 -1.644631,1.69607 z"
     id="path6834"
     inkscape:connector-curvature="0"
     style="stroke-width:0.99999994;fill:#65e496;fill-opacity:1" />
</svg>
