<?xml version="1.0" encoding="UTF-8" standalone="no"?>
<svg
   xmlns:dc="http://purl.org/dc/elements/1.1/"
   xmlns:cc="http://creativecommons.org/ns#"
   xmlns:rdf="http://www.w3.org/1999/02/22-rdf-syntax-ns#"
   xmlns:svg="http://www.w3.org/2000/svg"
   xmlns="http://www.w3.org/2000/svg"
   xmlns:sodipodi="http://sodipodi.sourceforge.net/DTD/sodipodi-0.dtd"
   xmlns:inkscape="http://www.inkscape.org/namespaces/inkscape"
   viewBox="0 0 13 15"
   version="1.1"
   id="svg9372"
   sodipodi:docname="whatsapp.svg"
   width="13"
   height="15"
   inkscape:version="0.92.4 (5da689c313, 2019-01-14)">
  <metadata
     id="metadata9378">
    <rdf:RDF>
      <cc:Work
         rdf:about="">
        <dc:format>image/svg+xml</dc:format>
        <dc:type
           rdf:resource="http://purl.org/dc/dcmitype/StillImage" />
        <dc:title></dc:title>
      </cc:Work>
    </rdf:RDF>
  </metadata>
  <defs
     id="defs9376" />
  <sodipodi:namedview
     pagecolor="#ffffff"
     bordercolor="#666666"
     borderopacity="1"
     objecttolerance="10"
     gridtolerance="10"
     guidetolerance="10"
     inkscape:pageopacity="0"
     inkscape:pageshadow="2"
     inkscape:window-width="1366"
     inkscape:window-height="705"
     id="namedview9374"
     showgrid="false"
     inkscape:zoom="38.285714"
     inkscape:cx="6.4999995"
     inkscape:cy="6.2058257"
     inkscape:window-x="-8"
     inkscape:window-y="-8"
     inkscape:window-maximized="1"
     inkscape:current-layer="svg9372" />
  <path
     d="M 11.052904,2.53438 C 9.8370553,1.22188 8.2178586,0.5 6.4970994,0.5 2.945313,0.5 0.05513393,3.6125 0.05513393,7.4375 c 0,1.22188 0.29598221,2.41562 0.85892873,3.46875 L 0,14.5 3.4154024,13.53438 c 0.9401787,0.55312 1.9993307,0.84375 3.0787952,0.84375 h 0.0029 C 10.045982,14.37813 13,11.26563 13,7.44063 13,5.5875 12.26875,3.84688 11.052902,2.53438 Z m -4.5558046,10.675 c -0.9633931,0 -1.9064735,-0.27813 -2.7276791,-0.80313 L 3.5750007,12.28125 1.5495538,12.85312 2.0892861,10.725 1.9616075,10.50625 C 1.424777,9.5875 1.1433038,8.52812 1.1433038,7.4375 c 0,-3.17813 2.402679,-5.76562 5.3566973,-5.76562 1.4305806,0 2.7741077,0.6 3.7839299,1.69062 1.009821,1.09063 1.630803,2.5375 1.627902,4.07813 0,3.18124 -2.4636171,5.76875 -5.4147336,5.76875 z M 9.433707,8.89063 C 9.2741088,8.80313 8.4819212,8.38437 8.33393,8.32813 8.1859389,8.26873 8.0785728,8.24063 7.9712067,8.41563 7.8638407,8.59063 7.5562513,8.97813 7.4604924,9.09689 7.3676354,9.21251 7.2718763,9.22813 7.112278,9.14059 6.1662958,8.63121 5.5453134,8.23121 4.9214295,7.07809 4.7560277,6.77184 5.0868313,6.79371 5.3944206,6.13121 5.4466526,6.01559 5.4205366,5.91558 5.3799116,5.82809 5.3392866,5.74059 5.0171884,4.88746 4.8837062,4.54058 4.7531259,4.20309 4.6196437,4.24996 4.5209829,4.24371 c -0.092857,-0.006 -0.2002232,-0.006 -0.3075893,-0.006 -0.1073661,0 -0.2814733,0.0437 -0.4294644,0.21563 -0.147991,0.175 -0.5629465,0.59375 -0.5629465,1.44687 0,0.85313 0.5774555,1.67813 0.6558037,1.79375 0.08125,0.11562 1.1345984,1.86562 2.7508933,2.61875 1.0214288,0.475 1.4218753,0.51563 1.9325897,0.43437 0.3104911,-0.05 0.9517858,-0.41874 1.085268,-0.82499 C 9.7790196,9.51584 9.7790196,9.16896 9.7383944,9.09709 9.7006714,9.01899 9.5933051,8.97521 9.433707,8.89084 Z"
     id="path9370"
     inkscape:connector-curvature="0"
     style="stroke-width:1.00000012;fill:#65e496;fill-opacity:1" />
</svg>
