<?xml version="1.0" encoding="UTF-8" standalone="no"?>
<svg
   xmlns:dc="http://purl.org/dc/elements/1.1/"
   xmlns:cc="http://creativecommons.org/ns#"
   xmlns:rdf="http://www.w3.org/1999/02/22-rdf-syntax-ns#"
   xmlns:svg="http://www.w3.org/2000/svg"
   xmlns="http://www.w3.org/2000/svg"
   xmlns:sodipodi="http://sodipodi.sourceforge.net/DTD/sodipodi-0.dtd"
   xmlns:inkscape="http://www.inkscape.org/namespaces/inkscape"
   viewBox="0 0 17 15"
   version="1.1"
   id="svg7988"
   sodipodi:docname="youtube.svg"
   width="17"
   height="15"
   inkscape:version="0.92.4 (5da689c313, 2019-01-14)">
  <metadata
     id="metadata7994">
    <rdf:RDF>
      <cc:Work
         rdf:about="">
        <dc:format>image/svg+xml</dc:format>
        <dc:type
           rdf:resource="http://purl.org/dc/dcmitype/StillImage" />
        <dc:title></dc:title>
      </cc:Work>
    </rdf:RDF>
  </metadata>
  <defs
     id="defs7992" />
  <sodipodi:namedview
     pagecolor="#ffffff"
     bordercolor="#666666"
     borderopacity="1"
     objecttolerance="10"
     gridtolerance="10"
     guidetolerance="10"
     inkscape:pageopacity="0"
     inkscape:pageshadow="2"
     inkscape:window-width="1366"
     inkscape:window-height="705"
     id="namedview7990"
     showgrid="false"
     inkscape:zoom="44.666667"
     inkscape:cx="8.6287104"
     inkscape:cy="7.3627213"
     inkscape:window-x="-8"
     inkscape:window-y="-8"
     inkscape:window-maximized="1"
     inkscape:current-layer="svg7988" />
  <path
     d="M 16.644768,3.37759 C 16.449254,2.63853 15.873201,2.05647 15.141789,1.85894 13.816053,1.5 8.4999995,1.5 8.4999995,1.5 c 0,0 -5.3160213,0 -6.6417894,0.35894 C 1.1267981,2.0565 0.55074603,2.63853 0.35523102,3.37759 0,4.71719 0,7.51213 0,7.51213 c 0,0 0,2.79493 0.35523102,4.13453 0.19551501,0.73906 0.77156708,1.29687 1.50297908,1.4944 C 3.1839782,13.5 8.4999995,13.5 8.4999995,13.5 c 0,0 5.3160215,0 6.6417895,-0.35894 0.731412,-0.19753 1.307465,-0.75534 1.502979,-1.4944 C 17,10.30706 17,7.51213 17,7.51213 c 0,0 0,-2.79494 -0.355232,-4.13454 z M 6.7613514,10.04972 V 4.97453 l 4.4431646,2.53766 z"
     id="path7986"
     inkscape:connector-curvature="0"
     style="stroke-width:0.99999988;fill:#65e496;fill-opacity:1" />
</svg>
